<?xml version="1.0" encoding="utf-8"?>
<!-- Generator: Adobe Illustrator 21.0.0, SVG Export Plug-In . SVG Version: 6.00 Build 0)  -->
<svg version="1.1" id="Livello_1" xmlns="http://www.w3.org/2000/svg" xmlns:xlink="http://www.w3.org/1999/xlink" x="0px" y="0px"
	 viewBox="0 0 841.9 595.3" style="enable-background:new 0 0 841.9 595.3;" xml:space="preserve">
<style type="text/css">
	.st0{fill:#E9427A;}
	.st1{fill:#FFFFFF;}
	.st2{fill:#D0D0D0;}
</style>
<g>
	<path class="st0" d="M110.9,164.6c-28.4,0-45.5,13.9-54.8,32.5h110.2C156.7,178.5,139.3,164.6,110.9,164.6z"/>
	<path class="st0" d="M190.8,326.9c-2.9-3-7.8-3-10.7,0c-3,2.9-3,7.7,0,10.7c2.1,2.1,3.3,4.9,3.3,8c0,3-1.2,5.8-3.3,8
		c-2.1,2.1-4.9,3.3-7.9,3.3h0c-6.1,0-10.8-4.9-10.8-11.2v-41.8c0-7.3-2.9-13.7-7.5-18.3c13.7-9.5,22.3-24.3,22.3-43.9
		c0-0.7,0-1.3-0.1-2c-0.1,0-0.2,0-0.3,0h-3.4v6.2c0,10.2-8.6,21-24.6,21c-16,0-24.6-10.8-24.6-21v-5.9c-1.4-0.3-3.6-0.7-6.5-0.7
		s-5.2,0.3-6.5,0.7v6c0,10.2-8.6,21-24.6,21c-16,0-24.6-10.8-24.6-21v-6.2h-3.4c-2.5,0-4.6-2.1-4.6-4.6c0-2.5,2.1-4.6,4.6-4.6h3.6
		c0.7-5.1,5.2-9.1,10.7-9.1h27.4c5.6,0,10.1,4.1,10.8,9.2c2.3-0.4,4.7-0.5,6.7-0.5c2,0,4.3,0.1,6.7,0.5c0.6-5.2,5.2-9.3,10.7-9.3
		h27.4c5.5,0,10.1,4,10.7,9.2h3.3c-0.6-5.9-1.6-11.8-3.1-17.5H50.2c-2.5,9.3-3.6,19.1-3.6,28.6c0,19.7,8.9,34.7,22.9,44.1
		c-4.6,4.6-7.4,11-7.4,18.3v58.2c0,6.3-4.7,11.2-10.8,11.2c-6.2,0-11.3-5-11.2-11.3c0-3,1.2-5.8,3.3-7.9c3-3,3-7.8,0-10.7
		c-3-3-7.8-3-10.7,0c-5,5-7.7,11.6-7.7,18.6c0,14.5,11.8,26.4,26.4,26.4c14.6,0,25.9-11.6,25.9-26.4V304c0-5.5,3.9-9.8,9-10.3
		c7.8,2.5,16.4,3.8,25.4,3.8c0.4,0,0.8,0,1.2-0.1c1.9,0.4,3.6,1.3,4.9,2.7c1.9,1.9,2.9,4.6,2.9,7.4v26.2c0,3.1-1.1,5.9-3.2,8
		c-2,2.1-4.7,3.2-7.7,3.2c-6.2,0-11.2-5-11.2-11.2c0-3,1.2-5.8,3.3-7.9c3-3,3-7.8,0-10.7c-3-2.9-7.8-2.9-10.7,0
		c-5,5-7.7,11.6-7.7,18.6c0,14.5,11.8,26.4,26.4,26.4c7.1,0,13.6-2.8,18.5-7.8c4.8-4.9,7.4-11.6,7.4-18.6l0-26.2
		c0-4.5-1.2-8.8-3.3-12.6c1.6-0.4,3.3-0.9,4.9-1.4c5,0.6,8.9,4.8,8.9,10.3v41.8c0,14.8,11.4,26.4,26,26.4h0c7.1,0,13.7-2.7,18.7-7.7
		c5-5,7.7-11.6,7.7-18.7C198.5,338.5,195.8,331.9,190.8,326.9z"/>
	<path class="st1" d="M166.3,197.1H56.1c-2.5,5-4.5,10.4-5.9,15.9h122.2C170.9,207.5,168.9,202.1,166.3,197.1z"/>
	<path class="st1" d="M99.2,230.5H71.8c-1,0-1.7,0.7-1.7,1.3v14c0,4.7,4.1,11.8,15.4,11.8c11.3,0,15.4-7.1,15.4-11.8v-14
		C101,231.2,100.3,230.5,99.2,230.5z"/>
	<path class="st1" d="M161.5,230.5h-27.4c-1,0-1.7,0.7-1.7,1.3v14c0,4.7,4.1,11.8,15.5,11.8c11.3,0,15.4-7.1,15.4-11.8v-14
		C163.3,231.2,162.5,230.5,161.5,230.5z"/>
	<path d="M161.5,221.3h-27.4c-5.6,0-10.1,4.1-10.7,9.3c-2.3-0.4-4.7-0.5-6.7-0.5c-2,0-4.4,0.1-6.7,0.5c-0.7-5.2-5.2-9.2-10.8-9.2
		H71.8c-5.5,0-10,4-10.7,9.1h-3.6c-2.5,0-4.6,2.1-4.6,4.6c0,2.5,2.1,4.6,4.6,4.6h3.4v6.2c0,10.2,8.6,21,24.6,21
		c16,0,24.6-10.8,24.6-21v-6c1.4-0.3,3.6-0.7,6.5-0.7s5.1,0.3,6.5,0.7v5.9c0,10.2,8.6,21,24.6,21c16,0,24.6-10.8,24.6-21v-6.2h3.4
		c0.1,0,0.2,0,0.3,0c2.4-0.1,4.3-2.1,4.3-4.5c0-2.5-2-4.6-4.6-4.6h-0.3h-3.3C171.6,225.4,167.1,221.3,161.5,221.3z M101,245.9
		c0,4.7-4.1,11.8-15.4,11.8c-11.3,0-15.4-7.1-15.4-11.8v-14c0-0.6,0.7-1.3,1.7-1.3h27.4c1,0,1.7,0.7,1.7,1.3V245.9z M163.3,245.8
		c0,4.7-4.1,11.8-15.4,11.8c-11.3,0-15.5-7.1-15.5-11.8v-14c0-0.6,0.7-1.3,1.7-1.3h27.4c1,0,1.7,0.7,1.7,1.3V245.8z"/>
	<path class="st2" d="M111.7,401.2c-35,0-63.4,6.6-63.4,14.7c0,8.1,28.4,14.7,63.4,14.7c35,0,63.4-6.6,63.4-14.7
		C175.1,407.8,146.7,401.2,111.7,401.2z"/>
	<g>
		<path class="st0" d="M254.1,183.3H277c5.9,0,11,0.5,15.3,1.6c4.3,1.1,8.1,3.2,11.6,6.2c9,7.7,13.5,19.4,13.5,35.2
			c0,5.2-0.4,9.9-1.4,14.2c-0.9,4.3-2.3,8.2-4.2,11.6c-1.9,3.4-4.3,6.5-7.3,9.2c-2.3,2.1-4.9,3.8-7.6,5c-2.8,1.3-5.7,2.1-8.9,2.7
			c-3.2,0.5-6.7,0.8-10.7,0.8h-22.8c-3.2,0-5.6-0.5-7.2-1.5c-1.6-1-2.7-2.3-3.2-4.1c-0.5-1.8-0.7-4-0.7-6.8V194
			c0-3.8,0.9-6.5,2.5-8.2C247.6,184.1,250.4,183.3,254.1,183.3z M260.9,197.1v58.7h13.3c2.9,0,5.2-0.1,6.8-0.2
			c1.7-0.2,3.4-0.6,5.1-1.2c1.8-0.6,3.3-1.5,4.6-2.7c5.9-5,8.8-13.5,8.8-25.6c0-8.5-1.3-14.9-3.9-19.2c-2.6-4.3-5.8-7-9.5-8.1
			c-3.8-1.2-8.4-1.7-13.7-1.7H260.9z"/>
		<path class="st0" d="M336.4,198.2c-2.2,0-4.2-0.7-5.8-2.1c-1.6-1.4-2.4-3.3-2.4-5.8c0-2.3,0.8-4.2,2.5-5.6
			c1.6-1.5,3.5-2.2,5.7-2.2c2.1,0,3.9,0.7,5.5,2c1.6,1.3,2.4,3.3,2.4,5.8c0,2.5-0.8,4.4-2.4,5.8
			C340.5,197.5,338.6,198.2,336.4,198.2z M344.4,214.9v46.6c0,3.2-0.8,5.7-2.3,7.3c-1.5,1.7-3.5,2.5-5.8,2.5c-2.4,0-4.3-0.9-5.8-2.5
			c-1.5-1.7-2.2-4.1-2.2-7.3v-46.1c0-3.2,0.7-5.6,2.2-7.2c1.5-1.6,3.4-2.4,5.8-2.4c2.4,0,4.3,0.8,5.8,2.4
			C343.6,209.8,344.4,212,344.4,214.9z"/>
		<path class="st0" d="M418.2,217.6v46.8c0,5.4-0.6,10-1.7,13.8c-1.1,3.9-3,7-5.5,9.6c-2.5,2.5-5.8,4.4-9.9,5.6
			c-4.1,1.2-9.1,1.8-15.2,1.8c-5.6,0-10.5-0.8-14.9-2.3c-4.4-1.6-7.7-3.6-10.1-6c-2.4-2.5-3.5-5-3.5-7.6c0-2,0.7-3.6,2-4.8
			c1.3-1.2,3-1.9,4.8-1.9c2.4,0,4.4,1,6.2,3.1c0.9,1.1,1.8,2.1,2.7,3.2c0.9,1.1,1.9,2,3.1,2.8c1.1,0.8,2.5,1.3,4,1.7
			c1.6,0.4,3.4,0.6,5.4,0.6c4.2,0,7.4-0.6,9.7-1.7c2.3-1.2,3.9-2.8,4.8-4.9c0.9-2.1,1.5-4.3,1.6-6.7c0.2-2.4,0.3-6.2,0.4-11.5
			c-2.5,3.5-5.3,6.1-8.6,7.9c-3.3,1.8-7.1,2.7-11.6,2.7c-5.4,0-10.1-1.4-14.1-4.1c-4-2.8-7.1-6.6-9.3-11.6c-2.2-5-3.2-10.7-3.2-17.2
			c0-4.8,0.7-9.2,2-13.1c1.3-3.9,3.2-7.2,5.6-9.9c2.4-2.7,5.2-4.7,8.4-6.1c3.2-1.4,6.7-2,10.5-2c4.6,0,8.5,0.9,11.9,2.6
			c3.3,1.7,6.4,4.5,9.3,8.2v-2.2c0-2.8,0.7-5,2.1-6.5c1.4-1.5,3.1-2.3,5.3-2.3c3.1,0,5.2,1,6.2,3
			C417.7,210.8,418.2,213.7,418.2,217.6z M371.5,238c0,6.5,1.4,11.5,4.3,14.8c2.8,3.3,6.5,5,11.1,5c2.7,0,5.2-0.7,7.6-2.1
			c2.4-1.4,4.3-3.6,5.8-6.5c1.5-2.9,2.2-6.4,2.2-10.5c0-6.6-1.4-11.7-4.3-15.3c-2.9-3.7-6.7-5.5-11.4-5.5c-4.6,0-8.3,1.8-11.1,5.3
			C372.9,226.5,371.5,231.5,371.5,238z"/>
		<path class="st0" d="M440.5,198.2c-2.2,0-4.2-0.7-5.7-2.1c-1.6-1.4-2.4-3.3-2.4-5.8c0-2.3,0.8-4.2,2.5-5.6
			c1.6-1.5,3.5-2.2,5.7-2.2c2.1,0,3.9,0.7,5.6,2c1.6,1.3,2.4,3.3,2.4,5.8c0,2.5-0.8,4.4-2.4,5.8
			C444.5,197.5,442.7,198.2,440.5,198.2z M448.5,214.9v46.6c0,3.2-0.8,5.7-2.3,7.3c-1.5,1.7-3.5,2.5-5.8,2.5c-2.4,0-4.3-0.9-5.8-2.5
			c-1.5-1.7-2.2-4.1-2.2-7.3v-46.1c0-3.2,0.7-5.6,2.2-7.2c1.5-1.6,3.4-2.4,5.8-2.4c2.4,0,4.3,0.8,5.8,2.4
			C447.7,209.8,448.5,212,448.5,214.9z"/>
		<path class="st0" d="M463.7,207.2h1.8v-9.7c0-2.6,0.1-4.6,0.2-6.1c0.1-1.5,0.5-2.7,1.1-3.8c0.6-1.1,1.5-2,2.7-2.7
			c1.2-0.7,2.5-1,4-1c2.1,0,3.9,0.8,5.6,2.3c1.1,1,1.8,2.3,2.1,3.7c0.3,1.5,0.4,3.6,0.4,6.3v11h5.9c2.3,0,4,0.5,5.2,1.6
			c1.2,1.1,1.8,2.5,1.8,4.2c0,2.2-0.9,3.7-2.6,4.5c-1.7,0.9-4.2,1.3-7.3,1.3h-3v29.6c0,2.5,0.1,4.5,0.3,5.8c0.2,1.4,0.6,2.5,1.4,3.3
			c0.8,0.8,2,1.3,3.7,1.3c0.9,0,2.2-0.2,3.8-0.5c1.6-0.3,2.9-0.5,3.8-0.5c1.3,0,2.5,0.5,3.5,1.6c1,1,1.6,2.3,1.6,3.9
			c0,2.6-1.4,4.6-4.3,6c-2.8,1.4-6.9,2.1-12.2,2.1c-5,0-8.9-0.9-11.5-2.5c-2.6-1.7-4.3-4-5.1-7c-0.8-3-1.2-7-1.2-12v-30.9h-2.1
			c-2.3,0-4.1-0.6-5.3-1.7c-1.2-1.1-1.8-2.5-1.8-4.2c0-1.7,0.6-3.1,1.9-4.2C459.4,207.7,461.3,207.2,463.7,207.2z"/>
		<path class="st0" d="M547.5,262.2c-3.9,3-7.7,5.3-11.3,6.8c-3.6,1.5-7.7,2.3-12.2,2.3c-4.1,0-7.8-0.8-10.9-2.5
			c-3.1-1.6-5.5-3.8-7.2-6.6c-1.7-2.8-2.5-5.8-2.5-9.1c0-4.4,1.4-8.2,4.2-11.3c2.8-3.1,6.6-5.2,11.5-6.3c1-0.2,3.6-0.8,7.6-1.6
			c4.1-0.8,7.5-1.6,10.4-2.3c2.9-0.7,6-1.5,9.4-2.5c-0.2-4.3-1.1-7.4-2.6-9.4c-1.5-2-4.7-3-9.4-3c-4.1,0-7.2,0.6-9.2,1.7
			c-2.1,1.1-3.8,2.9-5.3,5.1c-1.5,2.3-2.5,3.8-3.1,4.5c-0.6,0.7-1.9,1.1-3.9,1.1c-1.8,0-3.4-0.6-4.7-1.7c-1.3-1.2-2-2.7-2-4.5
			c0-2.8,1-5.6,3-8.3c2-2.7,5.1-4.9,9.4-6.6c4.3-1.7,9.5-2.6,15.9-2.6c7.1,0,12.7,0.8,16.7,2.5c4,1.7,6.9,4.3,8.6,7.9
			c1.7,3.6,2.5,8.4,2.5,14.4c0,3.8,0,7,0,9.6c0,2.6,0,5.6-0.1,8.8c0,3,0.5,6.2,1.5,9.5c1,3.3,1.5,5.4,1.5,6.3c0,1.7-0.8,3.2-2.3,4.5
			c-1.6,1.4-3.3,2-5.3,2c-1.7,0-3.3-0.8-4.9-2.3C551.1,267.4,549.3,265.1,547.5,262.2z M546.5,238.9c-2.4,0.9-5.8,1.8-10.3,2.7
			c-4.5,1-7.6,1.7-9.4,2.1c-1.7,0.4-3.4,1.3-5,2.7c-1.6,1.3-2.4,3.2-2.4,5.5c0,2.4,0.9,4.5,2.8,6.2c1.8,1.7,4.3,2.6,7.3,2.6
			c3.2,0,6.1-0.7,8.8-2.1c2.7-1.4,4.7-3.2,5.9-5.4c1.5-2.4,2.2-6.5,2.2-12V238.9z"/>
		<path class="st0" d="M576.3,261.5v-69.9c0-3.2,0.7-5.7,2.2-7.3c1.4-1.7,3.4-2.5,5.8-2.5c2.4,0,4.4,0.8,5.9,2.5
			c1.5,1.6,2.2,4.1,2.2,7.3v69.9c0,3.3-0.8,5.7-2.3,7.4c-1.5,1.6-3.5,2.4-5.9,2.4c-2.4,0-4.3-0.8-5.8-2.5
			C577.1,267,576.3,264.6,576.3,261.5z"/>
		<path class="st0" d="M254.1,301.2H277c5.9,0,11,0.6,15.3,1.7c4.3,1.1,8.1,3.2,11.6,6.2c9,7.7,13.5,19.4,13.5,35.2
			c0,5.2-0.4,9.9-1.4,14.2c-0.9,4.3-2.3,8.2-4.2,11.6c-1.9,3.4-4.3,6.5-7.3,9.2c-2.3,2.1-4.9,3.8-7.6,5c-2.8,1.3-5.7,2.1-8.9,2.7
			c-3.2,0.5-6.7,0.8-10.7,0.8h-22.8c-3.2,0-5.6-0.5-7.2-1.4c-1.6-1-2.7-2.3-3.2-4.1c-0.5-1.8-0.7-4-0.7-6.8V312
			c0-3.8,0.9-6.5,2.5-8.2C247.6,302.1,250.4,301.2,254.1,301.2z M260.9,315.1v58.7h13.3c2.9,0,5.2-0.1,6.8-0.2
			c1.7-0.2,3.4-0.5,5.1-1.2c1.8-0.6,3.3-1.5,4.6-2.7c5.9-5,8.8-13.5,8.8-25.6c0-8.5-1.3-14.9-3.9-19.2c-2.6-4.3-5.8-7-9.5-8.1
			c-3.8-1.2-8.4-1.7-13.7-1.7H260.9z"/>
		<path class="st0" d="M336.4,316.2c-2.2,0-4.2-0.7-5.8-2.1c-1.6-1.4-2.4-3.3-2.4-5.8c0-2.3,0.8-4.2,2.5-5.6
			c1.6-1.5,3.5-2.2,5.7-2.2c2.1,0,3.9,0.7,5.5,2c1.6,1.3,2.4,3.3,2.4,5.8c0,2.5-0.8,4.4-2.4,5.8
			C340.5,315.5,338.6,316.2,336.4,316.2z M344.4,332.9v46.6c0,3.2-0.8,5.7-2.3,7.3c-1.5,1.7-3.5,2.5-5.8,2.5c-2.4,0-4.3-0.8-5.8-2.5
			c-1.5-1.7-2.2-4.1-2.2-7.3v-46.1c0-3.2,0.7-5.6,2.2-7.2c1.5-1.6,3.4-2.4,5.8-2.4c2.4,0,4.3,0.8,5.8,2.4
			C343.6,327.7,344.4,330,344.4,332.9z"/>
		<path class="st0" d="M416.3,369.3c0,2-0.6,4.2-1.8,6.4c-1.2,2.3-3,4.5-5.5,6.5c-2.5,2.1-5.6,3.7-9.3,5c-3.7,1.3-8,1.9-12.6,1.9
			c-9.9,0-17.7-2.9-23.3-8.7c-5.6-5.8-8.4-13.6-8.4-23.3c0-6.6,1.3-12.5,3.8-17.5c2.6-5.1,6.3-9,11.1-11.8
			c4.8-2.8,10.6-4.2,17.4-4.2c4.2,0,8,0.6,11.5,1.8c3.5,1.2,6.4,2.8,8.9,4.7c2.4,1.9,4.3,4,5.6,6.2c1.3,2.2,1.9,4.2,1.9,6.1
			c0,1.9-0.7,3.6-2.2,4.9c-1.4,1.3-3.2,2-5.2,2c-1.3,0-2.5-0.4-3.3-1c-0.9-0.7-1.9-1.8-3-3.3c-2-3-4-5.2-6.2-6.7
			c-2.1-1.5-4.9-2.2-8.2-2.2c-4.8,0-8.6,1.9-11.5,5.6c-2.9,3.7-4.4,8.8-4.4,15.3c0,3,0.4,5.8,1.1,8.4c0.7,2.5,1.8,4.7,3.2,6.5
			c1.4,1.8,3.1,3.1,5.1,4.1c2,0.9,4.2,1.4,6.6,1.4c3.2,0,6-0.7,8.3-2.2c2.3-1.5,4.3-3.8,6.1-6.9c1-1.8,2.1-3.2,3.2-4.2
			c1.1-1,2.5-1.5,4.2-1.5c2,0,3.6,0.8,4.9,2.3C415.7,366,416.3,367.6,416.3,369.3z"/>
		<path class="st0" d="M428.5,325.1h1.8v-9.7c0-2.6,0.1-4.6,0.2-6.1c0.1-1.5,0.5-2.7,1.1-3.8c0.6-1.1,1.5-2,2.7-2.7
			c1.2-0.7,2.5-1,4-1c2,0,3.9,0.8,5.6,2.3c1.1,1,1.8,2.3,2.1,3.7c0.3,1.5,0.4,3.6,0.4,6.3v11h5.9c2.3,0,4,0.5,5.2,1.6
			c1.2,1.1,1.8,2.5,1.8,4.2c0,2.2-0.9,3.7-2.6,4.5c-1.7,0.9-4.2,1.3-7.4,1.3h-3v29.6c0,2.5,0.1,4.5,0.3,5.8c0.2,1.4,0.7,2.5,1.4,3.3
			c0.8,0.8,2,1.3,3.7,1.3c0.9,0,2.2-0.2,3.8-0.5c1.6-0.3,2.9-0.5,3.8-0.5c1.3,0,2.5,0.5,3.5,1.5c1,1,1.6,2.3,1.6,3.9
			c0,2.6-1.4,4.6-4.3,6c-2.8,1.4-6.9,2.1-12.2,2.1c-5,0-8.9-0.8-11.5-2.5c-2.6-1.7-4.3-4-5.1-7c-0.8-3-1.2-7-1.2-12v-30.9h-2.1
			c-2.3,0-4.1-0.5-5.3-1.7c-1.2-1.1-1.8-2.5-1.8-4.2c0-1.7,0.6-3.1,1.9-4.2C424.2,325.7,426,325.1,428.5,325.1z"/>
		<path class="st0" d="M478.6,316.2c-2.2,0-4.2-0.7-5.8-2.1c-1.6-1.4-2.4-3.3-2.4-5.8c0-2.3,0.8-4.2,2.5-5.6
			c1.6-1.5,3.5-2.2,5.7-2.2c2.1,0,3.9,0.7,5.6,2c1.6,1.3,2.4,3.3,2.4,5.8c0,2.5-0.8,4.4-2.4,5.8
			C482.6,315.5,480.7,316.2,478.6,316.2z M486.5,332.9v46.6c0,3.2-0.8,5.7-2.3,7.3c-1.5,1.7-3.5,2.5-5.8,2.5c-2.4,0-4.3-0.8-5.8-2.5
			c-1.5-1.7-2.2-4.1-2.2-7.3v-46.1c0-3.2,0.7-5.6,2.2-7.2c1.5-1.6,3.4-2.4,5.8-2.4c2.4,0,4.3,0.8,5.8,2.4
			C485.8,327.7,486.5,330,486.5,332.9z"/>
		<path class="st0" d="M561.3,356.5c0,4.8-0.7,9.2-2.2,13.3c-1.5,4.1-3.7,7.5-6.5,10.5c-2.8,2.9-6.2,5.1-10.2,6.7
			c-3.9,1.6-8.4,2.3-13.3,2.3c-4.9,0-9.3-0.8-13.2-2.4c-3.9-1.6-7.3-3.8-10.1-6.8c-2.9-2.9-5-6.4-6.5-10.4c-1.5-4-2.2-8.4-2.2-13.3
			c0-4.9,0.7-9.3,2.2-13.4c1.5-4.1,3.6-7.5,6.4-10.4c2.8-2.9,6.2-5.1,10.2-6.6c4-1.6,8.4-2.3,13.2-2.3c4.9,0,9.3,0.8,13.3,2.4
			c4,1.6,7.4,3.8,10.2,6.7c2.8,2.9,5,6.4,6.5,10.4C560.6,347.2,561.3,351.6,561.3,356.5z M545.2,356.5c0-6.6-1.4-11.7-4.3-15.3
			c-2.9-3.7-6.8-5.5-11.7-5.5c-3.2,0-5.9,0.8-8.3,2.4c-2.4,1.6-4.2,4.1-5.5,7.2c-1.3,3.2-1.9,6.9-1.9,11.2c0,4.2,0.6,7.9,1.9,11
			c1.3,3.2,3.1,5.6,5.5,7.2c2.4,1.7,5.2,2.5,8.4,2.5c4.9,0,8.8-1.8,11.7-5.5C543.7,368.1,545.2,363,545.2,356.5z"/>
		<path class="st0" d="M585.9,332.6v1.9c2.8-3.7,5.9-6.5,9.3-8.2c3.4-1.8,7.2-2.6,11.6-2.6c4.2,0,8,0.9,11.4,2.8
			c3.3,1.8,5.8,4.5,7.5,7.9c1.1,2,1.7,4.1,2.1,6.4c0.3,2.3,0.5,5.2,0.5,8.7v30c0,3.2-0.7,5.7-2.2,7.3c-1.5,1.7-3.4,2.5-5.8,2.5
			c-2.4,0-4.4-0.8-5.8-2.5c-1.5-1.7-2.2-4.1-2.2-7.3v-26.9c0-5.3-0.7-9.4-2.2-12.2c-1.5-2.8-4.4-4.2-8.8-4.2c-2.9,0-5.5,0.8-7.8,2.6
			c-2.4,1.7-4.1,4.1-5.2,7.1c-0.8,2.4-1.2,6.9-1.2,13.5v20.2c0,3.3-0.8,5.7-2.3,7.3c-1.5,1.6-3.5,2.5-5.9,2.5
			c-2.3,0-4.2-0.8-5.7-2.5c-1.5-1.7-2.2-4.1-2.2-7.3v-46.6c0-3.1,0.7-5.4,2-6.9c1.3-1.5,3.2-2.3,5.5-2.3c1.4,0,2.7,0.3,3.8,1
			c1.1,0.7,2.1,1.7,2.7,3C585.6,329.1,585.9,330.7,585.9,332.6z"/>
		<path class="st0" d="M681.7,380.2c-3.9,3-7.7,5.3-11.3,6.8c-3.6,1.5-7.7,2.3-12.2,2.3c-4.1,0-7.8-0.8-10.9-2.5
			c-3.1-1.6-5.5-3.8-7.2-6.6c-1.7-2.8-2.5-5.8-2.5-9.1c0-4.4,1.4-8.2,4.2-11.3c2.8-3.1,6.6-5.2,11.5-6.3c1-0.2,3.6-0.8,7.6-1.6
			c4.1-0.8,7.5-1.6,10.4-2.3c2.9-0.7,6-1.5,9.4-2.5c-0.2-4.3-1.1-7.4-2.6-9.4c-1.5-2-4.7-3-9.4-3c-4.1,0-7.2,0.6-9.2,1.7
			c-2.1,1.1-3.8,2.9-5.3,5.1c-1.5,2.3-2.5,3.8-3.1,4.5c-0.6,0.7-1.9,1.1-3.9,1.1c-1.8,0-3.4-0.6-4.7-1.7c-1.3-1.2-2-2.6-2-4.5
			c0-2.8,1-5.6,3-8.3c2-2.7,5.1-4.9,9.4-6.6c4.2-1.7,9.5-2.6,15.9-2.6c7.1,0,12.6,0.8,16.7,2.5c4.1,1.7,6.9,4.3,8.6,7.9
			c1.7,3.6,2.5,8.4,2.5,14.4c0,3.8,0,7,0,9.6c0,2.6,0,5.6-0.1,8.8c0,3,0.5,6.2,1.5,9.5c1,3.3,1.5,5.4,1.5,6.3c0,1.7-0.8,3.2-2.3,4.5
			c-1.6,1.4-3.3,2-5.3,2c-1.7,0-3.3-0.8-4.9-2.3C685.2,385.4,683.5,383.1,681.7,380.2z M680.6,356.8c-2.4,0.9-5.8,1.8-10.3,2.7
			c-4.5,1-7.6,1.7-9.4,2.1c-1.7,0.5-3.4,1.3-5,2.7c-1.6,1.3-2.4,3.2-2.4,5.5c0,2.4,0.9,4.5,2.8,6.2c1.9,1.7,4.3,2.6,7.3,2.6
			c3.2,0,6.1-0.7,8.8-2.1c2.7-1.4,4.7-3.2,5.9-5.4c1.5-2.4,2.2-6.5,2.2-12.1V356.8z"/>
		<path class="st0" d="M725.7,366v13.5c0,3.3-0.8,5.7-2.3,7.3c-1.5,1.6-3.5,2.5-5.8,2.5c-2.3,0-4.2-0.8-5.7-2.5
			c-1.5-1.7-2.2-4.1-2.2-7.3v-44.9c0-7.2,2.6-10.9,7.9-10.9c2.7,0,4.6,0.8,5.8,2.5c1.2,1.7,1.8,4.2,2,7.5c1.9-3.3,3.9-5.8,5.9-7.5
			c2-1.7,4.7-2.5,8.1-2.5c3.4,0,6.7,0.8,9.9,2.5c3.2,1.7,4.8,3.9,4.8,6.7c0,2-0.7,3.6-2,4.9c-1.4,1.3-2.8,1.9-4.4,1.9
			c-0.6,0-2-0.4-4.3-1.1c-2.3-0.7-4.3-1.1-6-1.1c-2.4,0-4.3,0.6-5.8,1.9c-1.5,1.2-2.7,3.1-3.5,5.5c-0.8,2.4-1.4,5.3-1.7,8.7
			C725.9,357,725.7,361.1,725.7,366z"/>
		<path class="st0" d="M778,391.2l1.5-3.6l-19.8-49.9c-1.2-2.9-1.8-5-1.8-6.3c0-1.4,0.3-2.7,1.1-3.8c0.7-1.2,1.7-2.1,2.9-2.8
			c1.2-0.7,2.5-1.1,3.9-1.1c2.3,0,4.1,0.7,5.3,2.2c1.2,1.5,2.2,3.6,3.1,6.4l13.6,39.7l12.9-36.9c1-3,1.9-5.3,2.8-7
			c0.8-1.7,1.7-2.8,2.6-3.4c0.9-0.6,2.2-0.9,3.9-0.9c1.2,0,2.4,0.3,3.5,1c1.1,0.7,2,1.5,2.6,2.6c0.6,1.1,0.9,2.3,0.9,3.5
			c-0.2,0.8-0.4,1.8-0.8,3.2c-0.4,1.4-0.8,2.8-1.3,4.2l-21,55c-1.8,4.8-3.6,8.6-5.3,11.4c-1.7,2.8-4,4.9-6.9,6.4
			c-2.9,1.5-6.7,2.2-11.5,2.2c-4.7,0-8.3-0.5-10.6-1.5c-2.4-1-3.5-2.9-3.5-5.6c0-1.9,0.6-3.3,1.7-4.3c1.1-1,2.8-1.5,5-1.5
			c0.9,0,1.7,0.1,2.5,0.3c1,0.2,1.9,0.4,2.7,0.4c1.9,0,3.3-0.3,4.4-0.8c1.1-0.6,2-1.5,2.9-2.9C776,395.9,776.9,393.9,778,391.2z"/>
	</g>
</g>
</svg>
