<!-- Generator: Adobe Illustrator 21.0.0, SVG Export Plug-In  -->
<svg version="1.1"
	 xmlns="http://www.w3.org/2000/svg" xmlns:xlink="http://www.w3.org/1999/xlink" xmlns:a="http://ns.adobe.com/AdobeSVGViewerExtensions/3.0/"
	 x="0px" y="0px" width="358px" height="120.3px" viewBox="0 0 358 120.3" style="enable-background:new 0 0 358 120.3;"
	 xml:space="preserve">
<style type="text/css">
	.st0{fill:#FFFFFF;}
</style>
<defs>
</defs>
<g>
	<g>
		<path class="st0" d="M38.9,0C26.1,0,18.3,6.3,14.1,14.7h49.8C59.6,6.3,51.7,0,38.9,0z"/>
		<path class="st0" d="M75,73.4c-1.3-1.3-3.5-1.3-4.8,0c-1.3,1.3-1.3,3.5,0,4.8c1,1,1.5,2.2,1.5,3.6c0,1.4-0.5,2.6-1.5,3.6
			c-1,1-2.2,1.5-3.6,1.5h0c-2.7,0-4.9-2.2-4.9-5.1V62.9c0-3.3-1.3-6.2-3.4-8.3c6.2-4.3,10.1-11,10.1-19.8c0-0.3,0-0.6,0-0.9
			c0,0-0.1,0-0.1,0h-1.5v2.8c0,4.6-3.9,9.5-11.1,9.5c-7.2,0-11.1-4.9-11.1-9.5v-2.7c-0.6-0.1-1.6-0.3-3-0.3c-1.3,0-2.3,0.1-3,0.3
			v2.7c0,4.6-3.9,9.5-11.1,9.5c-7.2,0-11.1-4.9-11.1-9.5v-2.8h-1.5c-1.1,0-2.1-0.9-2.1-2.1c0-1.1,0.9-2.1,2.1-2.1h1.6
			c0.3-2.3,2.4-4.1,4.8-4.1h12.4c2.5,0,4.6,1.8,4.9,4.2c1-0.2,2.1-0.2,3-0.2c0.9,0,2,0,3,0.2c0.3-2.4,2.3-4.2,4.9-4.2h12.4
			c2.5,0,4.6,1.8,4.9,4.1h1.5c-0.3-2.7-0.7-5.3-1.4-7.9H11.4c-1.1,4.2-1.6,8.7-1.6,12.9c0,8.9,4,15.7,10.3,19.9
			c-2.1,2.1-3.4,5-3.4,8.3v26.3c0,2.8-2.1,5.1-4.9,5.1c-2.8,0-5.1-2.3-5.1-5.1c0-1.4,0.5-2.6,1.5-3.6c1.3-1.3,1.3-3.5,0-4.8
			c-1.3-1.3-3.5-1.3-4.8,0C1.2,83.1,0,86.1,0,89.3c0,6.6,5.4,11.9,11.9,11.9c6.6,0,11.7-5.2,11.7-11.9V63c0-2.5,1.8-4.4,4.1-4.6
			c3.5,1.1,7.4,1.7,11.5,1.7c0.2,0,0.3,0,0.5,0c0.8,0.2,1.6,0.6,2.2,1.2c0.8,0.9,1.3,2.1,1.3,3.4v11.9c0,1.4-0.5,2.7-1.4,3.6
			c-0.9,0.9-2.1,1.4-3.5,1.4c-2.8,0-5.1-2.3-5.1-5.1c0-1.4,0.5-2.6,1.5-3.6c1.3-1.3,1.3-3.5,0-4.8c-1.3-1.3-3.5-1.3-4.8,0
			c-2.3,2.3-3.5,5.2-3.5,8.4c0,6.6,5.4,11.9,11.9,11.9c3.2,0,6.2-1.3,8.4-3.5c2.2-2.2,3.4-5.2,3.4-8.4l0-11.9c0-2-0.5-4-1.5-5.7
			c0.7-0.2,1.5-0.4,2.2-0.6c2.3,0.3,4,2.2,4,4.6v18.9c0,6.7,5.2,11.9,11.7,11.9h0c3.2,0,6.2-1.2,8.4-3.5c2.2-2.3,3.5-5.2,3.5-8.4
			S77.2,75.6,75,73.4z"/>
		<path class="st0" d="M33.6,29.8H21.2c-0.5,0-0.8,0.3-0.8,0.6v6.3c0,2.1,1.9,5.3,7,5.3c5.1,0,7-3.2,7-5.3v-6.3
			C34.4,30.1,34.1,29.8,33.6,29.8z"/>
		<path class="st0" d="M61.8,29.8H49.4c-0.5,0-0.8,0.3-0.8,0.6v6.3c0,2.1,1.9,5.3,7,5.3c5.1,0,7-3.2,7-5.3v-6.3
			C62.5,30.1,62.2,29.8,61.8,29.8z"/>
	</g>
	<ellipse class="st0" cx="39.2" cy="113.6" rx="28.7" ry="6.7"/>
	<g>
		<path class="st0" d="M103.6,8.4H114c2.7,0,5,0.2,6.9,0.7c1.9,0.5,3.7,1.4,5.2,2.8c4.1,3.5,6.1,8.8,6.1,15.9c0,2.3-0.2,4.5-0.6,6.4
			c-0.4,1.9-1,3.7-1.9,5.2c-0.9,1.6-1.9,2.9-3.3,4.2c-1.1,0.9-2.2,1.7-3.4,2.3c-1.2,0.6-2.6,1-4,1.2c-1.4,0.2-3,0.3-4.8,0.3h-10.3
			c-1.4,0-2.5-0.2-3.3-0.7c-0.7-0.4-1.2-1-1.4-1.8c-0.2-0.8-0.3-1.8-0.3-3.1V13.3c0-1.7,0.4-2.9,1.1-3.7
			C100.7,8.8,101.9,8.4,103.6,8.4z M106.7,14.7v26.6h6c1.3,0,2.3,0,3.1-0.1c0.7-0.1,1.5-0.3,2.3-0.5c0.8-0.3,1.5-0.7,2.1-1.2
			c2.7-2.2,4-6.1,4-11.6c0-3.9-0.6-6.8-1.7-8.7c-1.2-1.9-2.6-3.1-4.3-3.7c-1.7-0.5-3.8-0.8-6.2-0.8H106.7z"/>
		<path class="st0" d="M140.8,15.2c-1,0-1.9-0.3-2.6-0.9c-0.7-0.6-1.1-1.5-1.1-2.6c0-1,0.4-1.9,1.1-2.5c0.7-0.7,1.6-1,2.6-1
			c0.9,0,1.8,0.3,2.5,0.9c0.7,0.6,1.1,1.5,1.1,2.6c0,1.1-0.4,2-1.1,2.6C142.6,14.9,141.8,15.2,140.8,15.2z M144.4,22.7v21.1
			c0,1.5-0.3,2.6-1,3.3c-0.7,0.7-1.6,1.1-2.6,1.1c-1.1,0-1.9-0.4-2.6-1.1c-0.7-0.8-1-1.9-1-3.3V23c0-1.4,0.3-2.5,1-3.3
			c0.7-0.7,1.5-1.1,2.6-1.1c1.1,0,1.9,0.4,2.6,1.1C144.1,20.4,144.4,21.4,144.4,22.7z"/>
		<path class="st0" d="M177.8,23.9v21.2c0,2.4-0.3,4.5-0.8,6.2c-0.5,1.7-1.3,3.2-2.5,4.3c-1.1,1.1-2.6,2-4.5,2.5
			c-1.8,0.6-4.1,0.8-6.9,0.8c-2.5,0-4.8-0.4-6.7-1.1c-2-0.7-3.5-1.6-4.6-2.7c-1.1-1.1-1.6-2.3-1.6-3.4c0-0.9,0.3-1.6,0.9-2.2
			c0.6-0.6,1.3-0.8,2.2-0.8c1.1,0,2,0.5,2.8,1.4c0.4,0.5,0.8,1,1.2,1.5c0.4,0.5,0.9,0.9,1.4,1.3c0.5,0.3,1.1,0.6,1.8,0.8
			c0.7,0.2,1.5,0.3,2.5,0.3c1.9,0,3.4-0.3,4.4-0.8c1-0.5,1.8-1.3,2.2-2.2c0.4-0.9,0.7-2,0.7-3c0.1-1.1,0.1-2.8,0.2-5.2
			c-1.1,1.6-2.4,2.8-3.9,3.6c-1.5,0.8-3.2,1.2-5.2,1.2c-2.4,0-4.6-0.6-6.4-1.9c-1.8-1.2-3.2-3-4.2-5.2c-1-2.2-1.5-4.8-1.5-7.8
			c0-2.2,0.3-4.2,0.9-5.9c0.6-1.8,1.4-3.2,2.5-4.5c1.1-1.2,2.4-2.1,3.8-2.7c1.4-0.6,3-0.9,4.8-0.9c2.1,0,3.8,0.4,5.4,1.2
			c1.5,0.8,2.9,2,4.2,3.7v-1c0-1.3,0.3-2.2,0.9-2.9c0.6-0.7,1.4-1,2.4-1c1.4,0,2.3,0.5,2.8,1.4C177.6,20.9,177.8,22.2,177.8,23.9z
			 M156.7,33.2c0,3,0.6,5.2,1.9,6.7c1.3,1.5,3,2.3,5,2.3c1.2,0,2.4-0.3,3.4-1c1.1-0.6,1.9-1.6,2.6-2.9c0.7-1.3,1-2.9,1-4.8
			c0-3-0.7-5.3-2-6.9c-1.3-1.7-3-2.5-5.2-2.5c-2.1,0-3.7,0.8-5,2.4C157.3,28,156.7,30.3,156.7,33.2z"/>
		<path class="st0" d="M187.9,15.2c-1,0-1.9-0.3-2.6-0.9c-0.7-0.6-1.1-1.5-1.1-2.6c0-1,0.4-1.9,1.1-2.5c0.7-0.7,1.6-1,2.6-1
			c0.9,0,1.8,0.3,2.5,0.9c0.7,0.6,1.1,1.5,1.1,2.6c0,1.1-0.4,2-1.1,2.6C189.7,14.9,188.8,15.2,187.9,15.2z M191.5,22.7v21.1
			c0,1.5-0.3,2.6-1,3.3c-0.7,0.7-1.6,1.1-2.6,1.1c-1.1,0-1.9-0.4-2.6-1.1c-0.7-0.8-1-1.9-1-3.3V23c0-1.4,0.3-2.5,1-3.3
			c0.7-0.7,1.5-1.1,2.6-1.1c1.1,0,1.9,0.4,2.6,1.1C191.1,20.4,191.5,21.4,191.5,22.7z"/>
		<path class="st0" d="M198.4,19.2h0.8v-4.4c0-1.2,0-2.1,0.1-2.8c0.1-0.7,0.2-1.2,0.5-1.7c0.3-0.5,0.7-0.9,1.2-1.2
			c0.5-0.3,1.1-0.5,1.8-0.5c0.9,0,1.8,0.3,2.5,1c0.5,0.5,0.8,1,0.9,1.7c0.1,0.7,0.2,1.6,0.2,2.8v5h2.7c1,0,1.8,0.2,2.4,0.7
			c0.5,0.5,0.8,1.1,0.8,1.9c0,1-0.4,1.7-1.2,2.1c-0.8,0.4-1.9,0.6-3.3,0.6h-1.4v13.4c0,1.1,0,2,0.1,2.6c0.1,0.6,0.3,1.1,0.6,1.5
			c0.3,0.4,0.9,0.6,1.7,0.6c0.4,0,1-0.1,1.7-0.2c0.7-0.2,1.3-0.2,1.7-0.2c0.6,0,1.1,0.2,1.6,0.7c0.5,0.5,0.7,1.1,0.7,1.8
			c0,1.2-0.6,2.1-1.9,2.7c-1.3,0.6-3.1,0.9-5.5,0.9c-2.3,0-4-0.4-5.2-1.1c-1.2-0.8-1.9-1.8-2.3-3.2c-0.4-1.3-0.5-3.2-0.5-5.4v-14h-1
			c-1.1,0-1.9-0.3-2.4-0.7c-0.6-0.5-0.8-1.1-0.8-1.9c0-0.8,0.3-1.4,0.9-1.9C196.4,19.5,197.3,19.2,198.4,19.2z"/>
		<path class="st0" d="M236.2,44.1c-1.8,1.4-3.5,2.4-5.1,3.1c-1.6,0.7-3.5,1-5.5,1c-1.9,0-3.5-0.4-4.9-1.1c-1.4-0.7-2.5-1.7-3.3-3
			c-0.8-1.3-1.1-2.6-1.1-4.1c0-2,0.6-3.7,1.9-5.1c1.3-1.4,3-2.3,5.2-2.8c0.5-0.1,1.6-0.3,3.4-0.7c1.8-0.4,3.4-0.7,4.7-1
			c1.3-0.3,2.7-0.7,4.3-1.1c-0.1-1.9-0.5-3.3-1.2-4.2c-0.7-0.9-2.1-1.3-4.3-1.3c-1.8,0-3.2,0.3-4.2,0.8c-0.9,0.5-1.7,1.3-2.4,2.3
			c-0.7,1-1.1,1.7-1.4,2c-0.3,0.3-0.9,0.5-1.8,0.5c-0.8,0-1.5-0.3-2.1-0.8c-0.6-0.5-0.9-1.2-0.9-2c0-1.3,0.5-2.5,1.4-3.7
			c0.9-1.2,2.3-2.2,4.2-3c1.9-0.8,4.3-1.2,7.2-1.2c3.2,0,5.7,0.4,7.6,1.1c1.8,0.8,3.1,2,3.9,3.6c0.8,1.6,1.1,3.8,1.1,6.5
			c0,1.7,0,3.2,0,4.4c0,1.2,0,2.5,0,4c0,1.4,0.2,2.8,0.7,4.3c0.5,1.5,0.7,2.4,0.7,2.9c0,0.7-0.3,1.4-1.1,2c-0.7,0.6-1.5,0.9-2.4,0.9
			c-0.7,0-1.5-0.4-2.2-1.1C237.8,46.5,237.1,45.5,236.2,44.1z M235.8,33.6c-1.1,0.4-2.6,0.8-4.7,1.2c-2,0.4-3.4,0.8-4.2,1
			c-0.8,0.2-1.5,0.6-2.2,1.2c-0.7,0.6-1.1,1.4-1.1,2.5c0,1.1,0.4,2,1.3,2.8c0.8,0.8,1.9,1.2,3.3,1.2c1.4,0,2.8-0.3,4-1
			c1.2-0.6,2.1-1.4,2.7-2.4c0.7-1.1,1-2.9,1-5.4V33.6z"/>
		<path class="st0" d="M249.3,43.8V12.2c0-1.5,0.3-2.6,1-3.3c0.6-0.7,1.5-1.1,2.6-1.1c1.1,0,2,0.4,2.7,1.1c0.7,0.7,1,1.8,1,3.3v31.6
			c0,1.5-0.3,2.6-1,3.3c-0.7,0.7-1.6,1.1-2.7,1.1c-1.1,0-1.9-0.4-2.6-1.1C249.6,46.3,249.3,45.2,249.3,43.8z"/>
		<path class="st0" d="M103.6,61.8H114c2.7,0,5,0.3,6.9,0.7c1.9,0.5,3.7,1.4,5.2,2.8c4.1,3.5,6.1,8.8,6.1,15.9
			c0,2.3-0.2,4.5-0.6,6.4c-0.4,1.9-1,3.7-1.9,5.2c-0.9,1.6-1.9,2.9-3.3,4.2c-1.1,0.9-2.2,1.7-3.4,2.3c-1.2,0.6-2.6,1-4,1.2
			c-1.4,0.2-3,0.3-4.8,0.3h-10.3c-1.4,0-2.5-0.2-3.3-0.7c-0.7-0.4-1.2-1-1.4-1.8c-0.2-0.8-0.3-1.8-0.3-3.1V66.6
			c0-1.7,0.4-2.9,1.1-3.7C100.7,62.1,101.9,61.8,103.6,61.8z M106.7,68v26.6h6c1.3,0,2.3,0,3.1-0.1c0.7-0.1,1.5-0.2,2.3-0.5
			c0.8-0.3,1.5-0.7,2.1-1.2c2.7-2.2,4-6.1,4-11.6c0-3.9-0.6-6.8-1.7-8.7c-1.2-1.9-2.6-3.1-4.3-3.7c-1.7-0.5-3.8-0.8-6.2-0.8H106.7z"
			/>
		<path class="st0" d="M140.8,68.5c-1,0-1.9-0.3-2.6-0.9c-0.7-0.6-1.1-1.5-1.1-2.6c0-1,0.4-1.9,1.1-2.5c0.7-0.7,1.6-1,2.6-1
			c0.9,0,1.8,0.3,2.5,0.9c0.7,0.6,1.1,1.5,1.1,2.6c0,1.1-0.4,2-1.1,2.6C142.6,68.2,141.8,68.5,140.8,68.5z M144.4,76.1v21.1
			c0,1.5-0.3,2.6-1,3.3c-0.7,0.7-1.6,1.1-2.6,1.1c-1.1,0-1.9-0.4-2.6-1.2c-0.7-0.8-1-1.9-1-3.3V76.3c0-1.4,0.3-2.5,1-3.3
			c0.7-0.7,1.5-1.1,2.6-1.1c1.1,0,1.9,0.4,2.6,1.1C144.1,73.8,144.4,74.8,144.4,76.1z"/>
		<path class="st0" d="M176.9,92.5c0,0.9-0.3,1.9-0.8,2.9c-0.5,1-1.4,2-2.5,3c-1.1,0.9-2.5,1.7-4.2,2.3c-1.7,0.6-3.6,0.9-5.7,0.9
			c-4.5,0-8-1.3-10.5-3.9c-2.5-2.6-3.8-6.1-3.8-10.6c0-3,0.6-5.6,1.7-7.9c1.2-2.3,2.8-4.1,5-5.3c2.2-1.3,4.8-1.9,7.8-1.9
			c1.9,0,3.6,0.3,5.2,0.8c1.6,0.6,2.9,1.3,4,2.1c1.1,0.9,1.9,1.8,2.5,2.8c0.6,1,0.9,1.9,0.9,2.8c0,0.9-0.3,1.6-1,2.2
			c-0.6,0.6-1.4,0.9-2.4,0.9c-0.6,0-1.1-0.2-1.5-0.5c-0.4-0.3-0.9-0.8-1.3-1.5c-0.9-1.4-1.8-2.4-2.8-3c-1-0.7-2.2-1-3.7-1
			c-2.2,0-3.9,0.8-5.2,2.5c-1.3,1.7-2,4-2,6.9c0,1.4,0.2,2.6,0.5,3.8c0.3,1.1,0.8,2.1,1.5,2.9c0.6,0.8,1.4,1.4,2.3,1.8
			c0.9,0.4,1.9,0.6,3,0.6c1.5,0,2.7-0.3,3.7-1c1-0.7,2-1.7,2.8-3.1c0.4-0.8,0.9-1.5,1.4-1.9c0.5-0.5,1.1-0.7,1.9-0.7
			c0.9,0,1.6,0.3,2.2,1C176.6,91,176.9,91.8,176.9,92.5z"/>
		<path class="st0" d="M182.4,72.6h0.8v-4.4c0-1.2,0-2.1,0.1-2.8c0.1-0.7,0.2-1.2,0.5-1.7c0.3-0.5,0.7-0.9,1.2-1.2
			c0.5-0.3,1.1-0.5,1.8-0.5c0.9,0,1.8,0.3,2.5,1c0.5,0.5,0.8,1,0.9,1.7c0.1,0.7,0.2,1.6,0.2,2.8v5h2.7c1,0,1.8,0.2,2.4,0.7
			c0.5,0.5,0.8,1.1,0.8,1.9c0,1-0.4,1.7-1.2,2.1c-0.8,0.4-1.9,0.6-3.3,0.6h-1.4v13.4c0,1.1,0,2,0.1,2.6c0.1,0.6,0.3,1.1,0.6,1.5
			c0.3,0.4,0.9,0.6,1.7,0.6c0.4,0,1-0.1,1.7-0.2c0.7-0.2,1.3-0.2,1.7-0.2c0.6,0,1.1,0.2,1.6,0.7c0.5,0.5,0.7,1.1,0.7,1.8
			c0,1.2-0.6,2.1-1.9,2.7c-1.3,0.6-3.1,0.9-5.5,0.9c-2.3,0-4-0.4-5.2-1.2c-1.2-0.8-1.9-1.8-2.3-3.2c-0.4-1.4-0.5-3.2-0.5-5.4v-14h-1
			c-1,0-1.9-0.2-2.4-0.7c-0.6-0.5-0.8-1.1-0.8-1.9c0-0.8,0.3-1.4,0.9-1.9C180.5,72.8,181.3,72.6,182.4,72.6z"/>
		<path class="st0" d="M205.1,68.5c-1,0-1.9-0.3-2.6-0.9c-0.7-0.6-1.1-1.5-1.1-2.6c0-1,0.4-1.9,1.1-2.5c0.7-0.7,1.6-1,2.6-1
			c0.9,0,1.8,0.3,2.5,0.9c0.7,0.6,1.1,1.5,1.1,2.6c0,1.1-0.4,2-1.1,2.6C206.9,68.2,206,68.5,205.1,68.5z M208.7,76.1v21.1
			c0,1.5-0.3,2.6-1,3.3c-0.7,0.7-1.6,1.1-2.6,1.1c-1.1,0-1.9-0.4-2.6-1.2c-0.7-0.8-1-1.9-1-3.3V76.3c0-1.4,0.3-2.5,1-3.3
			c0.7-0.7,1.5-1.1,2.6-1.1c1.1,0,1.9,0.4,2.6,1.1C208.3,73.8,208.7,74.8,208.7,76.1z"/>
		<path class="st0" d="M242.5,86.7c0,2.2-0.3,4.2-1,6c-0.7,1.8-1.7,3.4-2.9,4.7c-1.3,1.3-2.8,2.3-4.6,3c-1.8,0.7-3.8,1.1-6,1.1
			c-2.2,0-4.2-0.4-5.9-1.1c-1.8-0.7-3.3-1.7-4.6-3.1c-1.3-1.3-2.3-2.9-2.9-4.7c-0.7-1.8-1-3.8-1-6c0-2.2,0.3-4.2,1-6.1
			c0.7-1.8,1.6-3.4,2.9-4.7c1.3-1.3,2.8-2.3,4.6-3c1.8-0.7,3.8-1.1,5.9-1.1c2.2,0,4.2,0.4,6,1.1c1.8,0.7,3.3,1.7,4.6,3
			c1.3,1.3,2.3,2.9,2.9,4.7C242.1,82.5,242.5,84.5,242.5,86.7z M235.2,86.7c0-3-0.7-5.3-2-6.9c-1.3-1.7-3.1-2.5-5.3-2.5
			c-1.4,0-2.7,0.4-3.8,1.1c-1.1,0.7-1.9,1.8-2.5,3.3c-0.6,1.4-0.9,3.1-0.9,5c0,1.9,0.3,3.6,0.9,5c0.6,1.4,1.4,2.5,2.5,3.3
			c1.1,0.8,2.3,1.1,3.8,1.1c2.2,0,4-0.8,5.3-2.5C234.5,92,235.2,89.7,235.2,86.7z"/>
		<path class="st0" d="M253.6,76v0.9c1.3-1.7,2.7-2.9,4.2-3.7c1.5-0.8,3.3-1.2,5.2-1.2c1.9,0,3.6,0.4,5.2,1.3c1.5,0.8,2.6,2,3.4,3.6
			c0.5,0.9,0.8,1.8,0.9,2.9c0.1,1,0.2,2.3,0.2,3.9v13.6c0,1.5-0.3,2.6-1,3.3c-0.7,0.7-1.5,1.1-2.6,1.1c-1.1,0-2-0.4-2.6-1.2
			c-0.7-0.8-1-1.9-1-3.3V85c0-2.4-0.3-4.2-1-5.5c-0.7-1.3-2-1.9-4-1.9c-1.3,0-2.5,0.4-3.5,1.2c-1.1,0.8-1.9,1.8-2.4,3.2
			c-0.4,1.1-0.5,3.1-0.5,6.1v9.1c0,1.5-0.3,2.6-1,3.3c-0.7,0.7-1.6,1.1-2.7,1.1c-1,0-1.9-0.4-2.6-1.2c-0.7-0.8-1-1.9-1-3.3V76.1
			c0-1.4,0.3-2.4,0.9-3.1c0.6-0.7,1.4-1,2.5-1c0.6,0,1.2,0.2,1.7,0.5c0.5,0.3,0.9,0.8,1.2,1.4C253.4,74.3,253.6,75.1,253.6,76z"/>
		<path class="st0" d="M296.9,97.4c-1.8,1.4-3.5,2.4-5.1,3.1c-1.6,0.7-3.5,1-5.5,1c-1.9,0-3.5-0.4-4.9-1.1c-1.4-0.7-2.5-1.7-3.3-3
			c-0.8-1.3-1.1-2.6-1.1-4.1c0-2,0.6-3.7,1.9-5.1c1.3-1.4,3-2.3,5.2-2.8c0.5-0.1,1.6-0.3,3.4-0.7c1.8-0.4,3.4-0.7,4.7-1
			c1.3-0.3,2.7-0.7,4.3-1.1c-0.1-1.9-0.5-3.3-1.2-4.2c-0.7-0.9-2.1-1.3-4.3-1.3c-1.9,0-3.2,0.3-4.2,0.8c-0.9,0.5-1.7,1.3-2.4,2.3
			c-0.7,1-1.1,1.7-1.4,2c-0.3,0.3-0.9,0.5-1.8,0.5c-0.8,0-1.5-0.3-2.1-0.8c-0.6-0.5-0.9-1.2-0.9-2c0-1.3,0.5-2.5,1.4-3.7
			c0.9-1.2,2.3-2.2,4.2-3c1.9-0.8,4.3-1.2,7.2-1.2c3.2,0,5.7,0.4,7.6,1.1c1.8,0.8,3.1,2,3.9,3.6c0.8,1.6,1.1,3.8,1.1,6.5
			c0,1.7,0,3.2,0,4.4c0,1.2,0,2.5,0,4c0,1.4,0.2,2.8,0.7,4.3c0.5,1.5,0.7,2.4,0.7,2.9c0,0.7-0.3,1.4-1.1,2c-0.7,0.6-1.5,0.9-2.4,0.9
			c-0.7,0-1.5-0.4-2.2-1.1C298.5,99.8,297.7,98.8,296.9,97.4z M296.4,86.9c-1.1,0.4-2.6,0.8-4.7,1.2c-2,0.4-3.4,0.8-4.2,1
			c-0.8,0.2-1.5,0.6-2.2,1.2c-0.7,0.6-1.1,1.4-1.1,2.5c0,1.1,0.4,2,1.3,2.8c0.8,0.8,1.9,1.2,3.3,1.2c1.4,0,2.8-0.3,4-0.9
			c1.2-0.6,2.1-1.4,2.7-2.4c0.7-1.1,1-2.9,1-5.4V86.9z"/>
		<path class="st0" d="M316.8,91v6.1c0,1.5-0.3,2.6-1,3.3c-0.7,0.7-1.6,1.1-2.6,1.1c-1,0-1.9-0.4-2.6-1.1c-0.7-0.7-1-1.9-1-3.3V76.8
			c0-3.3,1.2-4.9,3.6-4.9c1.2,0,2.1,0.4,2.6,1.2c0.5,0.8,0.8,1.9,0.9,3.4c0.9-1.5,1.8-2.6,2.7-3.4c0.9-0.8,2.1-1.2,3.7-1.2
			c1.5,0,3,0.4,4.5,1.2c1.4,0.8,2.2,1.8,2.2,3c0,0.9-0.3,1.6-0.9,2.2c-0.6,0.6-1.3,0.9-2,0.9c-0.3,0-0.9-0.2-1.9-0.5
			s-1.9-0.5-2.7-0.5c-1.1,0-1.9,0.3-2.6,0.8c-0.7,0.6-1.2,1.4-1.6,2.5c-0.4,1.1-0.6,2.4-0.8,3.9C316.8,87,316.8,88.8,316.8,91z"/>
		<path class="st0" d="M340.4,102.5l0.7-1.6l-9-22.6c-0.6-1.3-0.8-2.2-0.8-2.8c0-0.6,0.2-1.2,0.5-1.7c0.3-0.5,0.8-1,1.3-1.3
			c0.6-0.3,1.1-0.5,1.7-0.5c1.1,0,1.8,0.3,2.4,1c0.5,0.7,1,1.6,1.4,2.9l6.2,17.9l5.8-16.7c0.5-1.4,0.9-2.4,1.3-3.2
			c0.4-0.8,0.8-1.3,1.2-1.5c0.4-0.3,1-0.4,1.8-0.4c0.6,0,1.1,0.1,1.6,0.4c0.5,0.3,0.9,0.7,1.2,1.2c0.3,0.5,0.4,1,0.4,1.6
			c-0.1,0.3-0.2,0.8-0.3,1.4c-0.2,0.6-0.4,1.3-0.6,1.9l-9.5,24.9c-0.8,2.2-1.6,3.9-2.4,5.2c-0.8,1.2-1.8,2.2-3.1,2.9
			c-1.3,0.7-3,1-5.2,1c-2.1,0-3.7-0.2-4.8-0.7c-1.1-0.5-1.6-1.3-1.6-2.5c0-0.8,0.3-1.5,0.8-1.9c0.5-0.5,1.3-0.7,2.3-0.7
			c0.4,0,0.8,0.1,1.1,0.2c0.5,0.1,0.9,0.2,1.2,0.2c0.8,0,1.5-0.1,2-0.4c0.5-0.3,0.9-0.7,1.3-1.3
			C339.5,104.5,339.9,103.6,340.4,102.5z"/>
	</g>
	<g>
		<path class="st0" d="M109.1,116.7c0,0.3-0.1,0.7-0.3,1.1c-0.2,0.4-0.4,0.8-0.8,1.2c-0.4,0.4-0.8,0.7-1.4,0.9
			c-0.6,0.2-1.2,0.4-2,0.4c-0.6,0-1.1-0.1-1.5-0.2c-0.5-0.1-0.9-0.3-1.3-0.5c-0.4-0.2-0.7-0.5-1-0.9c-0.3-0.3-0.5-0.7-0.7-1.1
			c-0.2-0.4-0.4-0.9-0.5-1.3c-0.1-0.5-0.2-1-0.2-1.5c0-0.9,0.1-1.6,0.4-2.3c0.3-0.7,0.6-1.3,1.1-1.8c0.5-0.5,1-0.9,1.6-1.1
			c0.6-0.3,1.3-0.4,2-0.4c0.9,0,1.6,0.2,2.3,0.5c0.7,0.3,1.2,0.8,1.6,1.3c0.4,0.5,0.5,1,0.5,1.4c0,0.3-0.1,0.5-0.3,0.7
			c-0.2,0.2-0.4,0.3-0.6,0.3c-0.3,0-0.5-0.1-0.6-0.2c-0.1-0.1-0.3-0.4-0.5-0.7c-0.3-0.5-0.6-0.9-1-1.2c-0.4-0.3-0.9-0.4-1.4-0.4
			c-0.9,0-1.6,0.3-2.1,1c-0.5,0.7-0.8,1.6-0.8,2.9c0,0.8,0.1,1.5,0.4,2.1c0.2,0.6,0.6,1,1,1.2c0.4,0.3,0.9,0.4,1.5,0.4
			c0.6,0,1.2-0.2,1.6-0.5c0.4-0.3,0.8-0.8,1-1.4c0.1-0.3,0.2-0.5,0.3-0.7c0.1-0.2,0.4-0.3,0.7-0.3c0.3,0,0.5,0.1,0.7,0.3
			C109,116.2,109.1,116.4,109.1,116.7z"/>
		<path class="st0" d="M118.7,119.2c-0.5,0.4-1,0.7-1.4,0.8c-0.5,0.2-1,0.3-1.5,0.3c-0.5,0-1-0.1-1.4-0.3c-0.4-0.2-0.7-0.5-0.9-0.8
			c-0.2-0.3-0.3-0.7-0.3-1.1c0-0.5,0.2-1,0.5-1.4c0.3-0.4,0.8-0.6,1.4-0.8c0.1,0,0.4-0.1,0.9-0.2c0.5-0.1,0.9-0.2,1.3-0.3
			c0.4-0.1,0.7-0.2,1.2-0.3c0-0.5-0.1-0.9-0.3-1.2c-0.2-0.2-0.6-0.4-1.2-0.4c-0.5,0-0.9,0.1-1.1,0.2c-0.3,0.1-0.5,0.4-0.7,0.6
			c-0.2,0.3-0.3,0.5-0.4,0.6c-0.1,0.1-0.2,0.1-0.5,0.1c-0.2,0-0.4-0.1-0.6-0.2c-0.2-0.1-0.2-0.3-0.2-0.6c0-0.4,0.1-0.7,0.4-1
			c0.2-0.3,0.6-0.6,1.2-0.8c0.5-0.2,1.2-0.3,2-0.3c0.9,0,1.6,0.1,2.1,0.3c0.5,0.2,0.9,0.5,1.1,1c0.2,0.4,0.3,1,0.3,1.8
			c0,0.5,0,0.9,0,1.2c0,0.3,0,0.7,0,1.1c0,0.4,0.1,0.8,0.2,1.2c0.1,0.4,0.2,0.7,0.2,0.8c0,0.2-0.1,0.4-0.3,0.6
			c-0.2,0.2-0.4,0.3-0.7,0.3c-0.2,0-0.4-0.1-0.6-0.3C119.1,119.8,118.9,119.5,118.7,119.2z M118.5,116.3c-0.3,0.1-0.7,0.2-1.3,0.3
			c-0.6,0.1-0.9,0.2-1.2,0.3c-0.2,0.1-0.4,0.2-0.6,0.3c-0.2,0.2-0.3,0.4-0.3,0.7c0,0.3,0.1,0.6,0.3,0.8c0.2,0.2,0.5,0.3,0.9,0.3
			c0.4,0,0.8-0.1,1.1-0.3c0.3-0.2,0.6-0.4,0.7-0.7c0.2-0.3,0.3-0.8,0.3-1.5V116.3z"/>
		<path class="st0" d="M131.9,116.4v2.7c0,0.4-0.1,0.7-0.3,0.9c-0.2,0.2-0.4,0.3-0.8,0.3c-0.3,0-0.5-0.1-0.7-0.3
			c-0.2-0.2-0.3-0.5-0.3-0.9v-3.2c0-0.5,0-0.9-0.1-1.2c0-0.3-0.1-0.5-0.3-0.7c-0.2-0.2-0.4-0.3-0.7-0.3c-0.7,0-1.1,0.2-1.3,0.7
			c-0.2,0.4-0.3,1.1-0.3,1.9v2.7c0,0.4-0.1,0.7-0.3,0.9c-0.2,0.2-0.4,0.3-0.7,0.3c-0.3,0-0.6-0.1-0.7-0.3c-0.2-0.2-0.3-0.5-0.3-0.9
			v-5.7c0-0.4,0.1-0.7,0.3-0.9c0.2-0.2,0.4-0.3,0.7-0.3c0.3,0,0.5,0.1,0.7,0.3c0.2,0.2,0.3,0.4,0.3,0.8v0.2c0.3-0.4,0.7-0.7,1.1-0.9
			c0.4-0.2,0.8-0.3,1.3-0.3c0.5,0,0.9,0.1,1.3,0.3c0.4,0.2,0.7,0.5,0.9,0.9c0.3-0.4,0.7-0.7,1.1-0.9c0.4-0.2,0.8-0.3,1.3-0.3
			c0.5,0,1,0.1,1.4,0.3c0.4,0.2,0.7,0.5,0.9,0.9c0.2,0.4,0.3,0.9,0.3,1.7v3.9c0,0.4-0.1,0.7-0.3,0.9c-0.2,0.2-0.4,0.3-0.8,0.3
			c-0.3,0-0.6-0.1-0.7-0.3c-0.2-0.2-0.3-0.5-0.3-0.9v-3.4c0-0.4,0-0.8-0.1-1c0-0.3-0.1-0.5-0.3-0.7c-0.2-0.2-0.4-0.3-0.7-0.3
			c-0.3,0-0.5,0.1-0.8,0.2c-0.2,0.2-0.4,0.4-0.6,0.6C131.9,114.9,131.9,115.5,131.9,116.4z"/>
		<path class="st0" d="M143,110.3v3.1c0.4-0.4,0.8-0.7,1.1-0.9c0.4-0.2,0.9-0.3,1.5-0.3c0.7,0,1.2,0.2,1.7,0.5
			c0.5,0.3,0.9,0.8,1.2,1.4c0.3,0.6,0.4,1.3,0.4,2.1c0,0.6-0.1,1.2-0.2,1.7c-0.2,0.5-0.4,0.9-0.7,1.3c-0.3,0.4-0.6,0.7-1.1,0.9
			c-0.4,0.2-0.9,0.3-1.4,0.3c-0.3,0-0.6,0-0.9-0.1c-0.3-0.1-0.5-0.2-0.7-0.3c-0.2-0.1-0.4-0.2-0.5-0.4c-0.1-0.1-0.3-0.3-0.5-0.6v0.2
			c0,0.4-0.1,0.7-0.3,0.9c-0.2,0.2-0.4,0.3-0.7,0.3c-0.3,0-0.5-0.1-0.7-0.3c-0.2-0.2-0.3-0.5-0.3-0.9v-8.7c0-0.4,0.1-0.7,0.2-0.9
			c0.2-0.2,0.4-0.3,0.7-0.3c0.3,0,0.5,0.1,0.7,0.3C142.9,109.7,143,110,143,110.3z M143.1,116.3c0,0.8,0.2,1.4,0.5,1.8
			c0.4,0.4,0.8,0.6,1.4,0.6c0.5,0,0.9-0.2,1.3-0.7c0.4-0.4,0.5-1.1,0.5-1.9c0-0.5-0.1-1-0.2-1.4c-0.2-0.4-0.4-0.7-0.6-0.9
			c-0.3-0.2-0.6-0.3-1-0.3c-0.4,0-0.7,0.1-1,0.3c-0.3,0.2-0.5,0.5-0.7,0.9C143.2,115.3,143.1,115.7,143.1,116.3z"/>
		<path class="st0" d="M154.3,111.2c-0.3,0-0.5-0.1-0.7-0.3c-0.2-0.2-0.3-0.4-0.3-0.7c0-0.3,0.1-0.5,0.3-0.7
			c0.2-0.2,0.4-0.3,0.7-0.3c0.3,0,0.5,0.1,0.7,0.3c0.2,0.2,0.3,0.4,0.3,0.7c0,0.3-0.1,0.5-0.3,0.7
			C154.8,111.1,154.5,111.2,154.3,111.2z M155.3,113.3v5.8c0,0.4-0.1,0.7-0.3,0.9c-0.2,0.2-0.4,0.3-0.7,0.3c-0.3,0-0.5-0.1-0.7-0.3
			c-0.2-0.2-0.3-0.5-0.3-0.9v-5.7c0-0.4,0.1-0.7,0.3-0.9c0.2-0.2,0.4-0.3,0.7-0.3c0.3,0,0.5,0.1,0.7,0.3
			C155.2,112.7,155.3,112.9,155.3,113.3z"/>
		<path class="st0" d="M165.1,119.2c-0.5,0.4-1,0.7-1.4,0.8c-0.5,0.2-1,0.3-1.5,0.3c-0.5,0-1-0.1-1.4-0.3c-0.4-0.2-0.7-0.5-0.9-0.8
			c-0.2-0.3-0.3-0.7-0.3-1.1c0-0.5,0.2-1,0.5-1.4c0.3-0.4,0.8-0.6,1.4-0.8c0.1,0,0.4-0.1,0.9-0.2c0.5-0.1,0.9-0.2,1.3-0.3
			c0.4-0.1,0.7-0.2,1.2-0.3c0-0.5-0.1-0.9-0.3-1.2c-0.2-0.2-0.6-0.4-1.2-0.4c-0.5,0-0.9,0.1-1.1,0.2c-0.3,0.1-0.5,0.4-0.7,0.6
			c-0.2,0.3-0.3,0.5-0.4,0.6c-0.1,0.1-0.2,0.1-0.5,0.1c-0.2,0-0.4-0.1-0.6-0.2c-0.2-0.1-0.2-0.3-0.2-0.6c0-0.4,0.1-0.7,0.4-1
			c0.2-0.3,0.6-0.6,1.2-0.8c0.5-0.2,1.2-0.3,2-0.3c0.9,0,1.6,0.1,2.1,0.3c0.5,0.2,0.9,0.5,1.1,1c0.2,0.4,0.3,1,0.3,1.8
			c0,0.5,0,0.9,0,1.2c0,0.3,0,0.7,0,1.1c0,0.4,0.1,0.8,0.2,1.2c0.1,0.4,0.2,0.7,0.2,0.8c0,0.2-0.1,0.4-0.3,0.6
			c-0.2,0.2-0.4,0.3-0.7,0.3c-0.2,0-0.4-0.1-0.6-0.3C165.5,119.8,165.3,119.5,165.1,119.2z M164.9,116.3c-0.3,0.1-0.7,0.2-1.3,0.3
			c-0.6,0.1-0.9,0.2-1.2,0.3c-0.2,0.1-0.4,0.2-0.6,0.3c-0.2,0.2-0.3,0.4-0.3,0.7c0,0.3,0.1,0.6,0.3,0.8c0.2,0.2,0.5,0.3,0.9,0.3
			c0.4,0,0.8-0.1,1.1-0.3c0.3-0.2,0.6-0.4,0.7-0.7c0.2-0.3,0.3-0.8,0.3-1.5V116.3z"/>
		<path class="st0" d="M178.3,116.4v2.7c0,0.4-0.1,0.7-0.3,0.9c-0.2,0.2-0.4,0.3-0.8,0.3c-0.3,0-0.5-0.1-0.7-0.3
			c-0.2-0.2-0.3-0.5-0.3-0.9v-3.2c0-0.5,0-0.9-0.1-1.2c0-0.3-0.1-0.5-0.3-0.7c-0.2-0.2-0.4-0.3-0.7-0.3c-0.7,0-1.1,0.2-1.3,0.7
			c-0.2,0.4-0.3,1.1-0.3,1.9v2.7c0,0.4-0.1,0.7-0.3,0.9c-0.2,0.2-0.4,0.3-0.7,0.3c-0.3,0-0.6-0.1-0.7-0.3c-0.2-0.2-0.3-0.5-0.3-0.9
			v-5.7c0-0.4,0.1-0.7,0.3-0.9c0.2-0.2,0.4-0.3,0.7-0.3c0.3,0,0.5,0.1,0.7,0.3c0.2,0.2,0.3,0.4,0.3,0.8v0.2c0.3-0.4,0.7-0.7,1.1-0.9
			c0.4-0.2,0.8-0.3,1.3-0.3c0.5,0,0.9,0.1,1.3,0.3c0.4,0.2,0.7,0.5,0.9,0.9c0.3-0.4,0.7-0.7,1.1-0.9c0.4-0.2,0.8-0.3,1.3-0.3
			c0.5,0,1,0.1,1.4,0.3c0.4,0.2,0.7,0.5,0.9,0.9c0.2,0.4,0.3,0.9,0.3,1.7v3.9c0,0.4-0.1,0.7-0.3,0.9c-0.2,0.2-0.4,0.3-0.8,0.3
			c-0.3,0-0.6-0.1-0.7-0.3c-0.2-0.2-0.3-0.5-0.3-0.9v-3.4c0-0.4,0-0.8-0.1-1c0-0.3-0.1-0.5-0.3-0.7c-0.2-0.2-0.4-0.3-0.7-0.3
			c-0.3,0-0.5,0.1-0.8,0.2c-0.2,0.2-0.4,0.4-0.6,0.6C178.4,114.9,178.3,115.5,178.3,116.4z"/>
		<path class="st0" d="M193.2,116.7h-3.9c0,0.5,0.1,0.9,0.3,1.2c0.2,0.3,0.4,0.6,0.7,0.8c0.3,0.2,0.6,0.3,1,0.3c0.2,0,0.5,0,0.7-0.1
			c0.2-0.1,0.4-0.1,0.6-0.3c0.2-0.1,0.4-0.2,0.5-0.4c0.2-0.1,0.4-0.3,0.6-0.6c0.1-0.1,0.2-0.1,0.4-0.1c0.2,0,0.4,0.1,0.5,0.2
			c0.1,0.1,0.2,0.3,0.2,0.5c0,0.2-0.1,0.4-0.2,0.6c-0.1,0.2-0.4,0.5-0.6,0.7c-0.3,0.2-0.6,0.4-1.1,0.6c-0.4,0.1-0.9,0.2-1.5,0.2
			c-1.3,0-2.3-0.4-3-1.1c-0.7-0.7-1.1-1.7-1.1-3c0-0.6,0.1-1.1,0.3-1.6c0.2-0.5,0.4-0.9,0.8-1.3c0.3-0.4,0.8-0.6,1.2-0.8
			c0.5-0.2,1-0.3,1.6-0.3c0.8,0,1.5,0.2,2,0.5c0.6,0.3,1,0.8,1.3,1.3c0.3,0.5,0.4,1.1,0.4,1.6c0,0.5-0.1,0.8-0.4,1
			C194.1,116.6,193.7,116.7,193.2,116.7z M189.3,115.6h3.6c0-0.7-0.2-1.2-0.6-1.5c-0.3-0.3-0.7-0.5-1.3-0.5c-0.5,0-0.9,0.2-1.2,0.5
			C189.5,114.4,189.3,114.9,189.3,115.6z"/>
		<path class="st0" d="M201,113.3v0.2c0.4-0.5,0.7-0.8,1.2-1c0.4-0.2,0.9-0.3,1.4-0.3c0.5,0,1,0.1,1.4,0.3c0.4,0.2,0.7,0.6,0.9,1
			c0.1,0.2,0.2,0.5,0.3,0.8c0,0.3,0.1,0.6,0.1,1.1v3.7c0,0.4-0.1,0.7-0.3,0.9c-0.2,0.2-0.4,0.3-0.7,0.3c-0.3,0-0.5-0.1-0.7-0.3
			c-0.2-0.2-0.3-0.5-0.3-0.9v-3.3c0-0.7-0.1-1.2-0.3-1.5c-0.2-0.3-0.5-0.5-1.1-0.5c-0.4,0-0.7,0.1-1,0.3c-0.3,0.2-0.5,0.5-0.6,0.9
			c-0.1,0.3-0.1,0.9-0.1,1.7v2.5c0,0.4-0.1,0.7-0.3,0.9c-0.2,0.2-0.4,0.3-0.7,0.3c-0.3,0-0.5-0.1-0.7-0.3c-0.2-0.2-0.3-0.5-0.3-0.9
			v-5.8c0-0.4,0.1-0.7,0.2-0.9c0.2-0.2,0.4-0.3,0.7-0.3c0.2,0,0.3,0,0.5,0.1c0.1,0.1,0.3,0.2,0.3,0.4C201,112.8,201,113,201,113.3z"
			/>
		<path class="st0" d="M211.1,112.3h0.2v-1.2c0-0.3,0-0.6,0-0.8c0-0.2,0.1-0.3,0.1-0.5c0.1-0.1,0.2-0.2,0.3-0.3
			c0.1-0.1,0.3-0.1,0.5-0.1c0.3,0,0.5,0.1,0.7,0.3c0.1,0.1,0.2,0.3,0.3,0.5c0,0.2,0.1,0.4,0.1,0.8v1.4h0.7c0.3,0,0.5,0.1,0.6,0.2
			c0.1,0.1,0.2,0.3,0.2,0.5c0,0.3-0.1,0.5-0.3,0.6c-0.2,0.1-0.5,0.2-0.9,0.2h-0.4v3.7c0,0.3,0,0.6,0,0.7c0,0.2,0.1,0.3,0.2,0.4
			c0.1,0.1,0.3,0.2,0.5,0.2c0.1,0,0.3,0,0.5-0.1c0.2,0,0.4-0.1,0.5-0.1c0.2,0,0.3,0.1,0.4,0.2c0.1,0.1,0.2,0.3,0.2,0.5
			c0,0.3-0.2,0.6-0.5,0.7c-0.4,0.2-0.9,0.3-1.5,0.3c-0.6,0-1.1-0.1-1.4-0.3c-0.3-0.2-0.5-0.5-0.6-0.9c-0.1-0.4-0.2-0.9-0.2-1.5v-3.8
			h-0.3c-0.3,0-0.5-0.1-0.7-0.2c-0.2-0.1-0.2-0.3-0.2-0.5c0-0.2,0.1-0.4,0.2-0.5C210.6,112.4,210.8,112.3,211.1,112.3z"/>
		<path class="st0" d="M226.5,116.2c0,0.6-0.1,1.1-0.3,1.6c-0.2,0.5-0.5,0.9-0.8,1.3c-0.4,0.4-0.8,0.6-1.3,0.8
			c-0.5,0.2-1,0.3-1.6,0.3c-0.6,0-1.1-0.1-1.6-0.3c-0.5-0.2-0.9-0.5-1.3-0.8c-0.4-0.4-0.6-0.8-0.8-1.3c-0.2-0.5-0.3-1-0.3-1.6
			c0-0.6,0.1-1.2,0.3-1.7c0.2-0.5,0.5-0.9,0.8-1.3c0.3-0.4,0.8-0.6,1.3-0.8c0.5-0.2,1-0.3,1.6-0.3c0.6,0,1.2,0.1,1.6,0.3
			c0.5,0.2,0.9,0.5,1.3,0.8c0.4,0.4,0.6,0.8,0.8,1.3C226.4,115.1,226.5,115.6,226.5,116.2z M224.5,116.2c0-0.8-0.2-1.5-0.5-1.9
			c-0.4-0.5-0.8-0.7-1.4-0.7c-0.4,0-0.7,0.1-1,0.3c-0.3,0.2-0.5,0.5-0.7,0.9c-0.2,0.4-0.2,0.9-0.2,1.4c0,0.5,0.1,1,0.2,1.4
			c0.2,0.4,0.4,0.7,0.7,0.9c0.3,0.2,0.6,0.3,1,0.3c0.6,0,1.1-0.2,1.4-0.7C224.3,117.7,224.5,117,224.5,116.2z"/>
		<path class="st0" d="M244.7,116.2c0,0.6-0.1,1.1-0.3,1.6c-0.2,0.5-0.5,0.9-0.8,1.3c-0.4,0.4-0.8,0.6-1.3,0.8
			c-0.5,0.2-1,0.3-1.6,0.3c-0.6,0-1.1-0.1-1.6-0.3c-0.5-0.2-0.9-0.5-1.3-0.8c-0.4-0.4-0.6-0.8-0.8-1.3c-0.2-0.5-0.3-1-0.3-1.6
			c0-0.6,0.1-1.2,0.3-1.7c0.2-0.5,0.5-0.9,0.8-1.3c0.3-0.4,0.8-0.6,1.3-0.8c0.5-0.2,1-0.3,1.6-0.3c0.6,0,1.2,0.1,1.6,0.3
			c0.5,0.2,0.9,0.5,1.3,0.8c0.4,0.4,0.6,0.8,0.8,1.3C244.6,115.1,244.7,115.6,244.7,116.2z M242.7,116.2c0-0.8-0.2-1.5-0.5-1.9
			c-0.4-0.5-0.8-0.7-1.4-0.7c-0.4,0-0.7,0.1-1,0.3c-0.3,0.2-0.5,0.5-0.7,0.9c-0.2,0.4-0.2,0.9-0.2,1.4c0,0.5,0.1,1,0.2,1.4
			c0.2,0.4,0.4,0.7,0.7,0.9c0.3,0.2,0.6,0.3,1,0.3c0.6,0,1.1-0.2,1.4-0.7C242.5,117.7,242.7,117,242.7,116.2z"/>
		<path class="st0" d="M250.9,117.4v1.7c0,0.4-0.1,0.7-0.3,0.9c-0.2,0.2-0.4,0.3-0.7,0.3c-0.3,0-0.5-0.1-0.7-0.3
			c-0.2-0.2-0.3-0.5-0.3-0.9v-5.6c0-0.9,0.3-1.3,1-1.3c0.3,0,0.6,0.1,0.7,0.3c0.1,0.2,0.2,0.5,0.2,0.9c0.2-0.4,0.5-0.7,0.7-0.9
			c0.3-0.2,0.6-0.3,1-0.3c0.4,0,0.8,0.1,1.2,0.3c0.4,0.2,0.6,0.5,0.6,0.8c0,0.2-0.1,0.4-0.3,0.6c-0.2,0.2-0.4,0.2-0.5,0.2
			c-0.1,0-0.3,0-0.5-0.1c-0.3-0.1-0.5-0.1-0.7-0.1c-0.3,0-0.5,0.1-0.7,0.2c-0.2,0.2-0.3,0.4-0.4,0.7c-0.1,0.3-0.2,0.7-0.2,1.1
			C251,116.3,250.9,116.8,250.9,117.4z"/>
		<path class="st0" d="M263.3,119.1v-0.2c-0.3,0.3-0.5,0.6-0.8,0.8c-0.3,0.2-0.5,0.3-0.8,0.4c-0.3,0.1-0.6,0.1-1,0.1
			c-0.5,0-0.9-0.1-1.3-0.3c-0.4-0.2-0.8-0.5-1.1-0.9c-0.3-0.4-0.5-0.8-0.7-1.3c-0.2-0.5-0.2-1.1-0.2-1.6c0-1.3,0.3-2.2,0.9-2.9
			c0.6-0.7,1.4-1,2.4-1c0.6,0,1.1,0.1,1.5,0.3c0.4,0.2,0.8,0.5,1.2,0.9v-3c0-0.4,0.1-0.7,0.2-0.9c0.2-0.2,0.4-0.3,0.7-0.3
			s0.5,0.1,0.7,0.3c0.2,0.2,0.2,0.5,0.2,0.9v8.8c0,0.4-0.1,0.7-0.3,0.9c-0.2,0.2-0.4,0.3-0.7,0.3c-0.3,0-0.5-0.1-0.7-0.3
			C263.4,119.8,263.3,119.5,263.3,119.1z M259.4,116.2c0,0.5,0.1,1,0.3,1.4c0.2,0.4,0.4,0.7,0.7,0.9c0.3,0.2,0.6,0.3,1,0.3
			c0.4,0,0.7-0.1,1-0.3c0.3-0.2,0.5-0.5,0.7-0.8c0.2-0.4,0.3-0.9,0.3-1.4c0-0.5-0.1-1-0.3-1.4c-0.2-0.4-0.4-0.7-0.7-0.9
			c-0.3-0.2-0.6-0.3-1-0.3c-0.4,0-0.7,0.1-1,0.3c-0.3,0.2-0.5,0.5-0.7,0.9C259.5,115.2,259.4,115.7,259.4,116.2z"/>
		<path class="st0" d="M270.9,111.2c-0.3,0-0.5-0.1-0.7-0.3c-0.2-0.2-0.3-0.4-0.3-0.7c0-0.3,0.1-0.5,0.3-0.7
			c0.2-0.2,0.4-0.3,0.7-0.3c0.3,0,0.5,0.1,0.7,0.3c0.2,0.2,0.3,0.4,0.3,0.7c0,0.3-0.1,0.5-0.3,0.7
			C271.4,111.1,271.2,111.2,270.9,111.2z M271.9,113.3v5.8c0,0.4-0.1,0.7-0.3,0.9c-0.2,0.2-0.4,0.3-0.7,0.3c-0.3,0-0.5-0.1-0.7-0.3
			c-0.2-0.2-0.3-0.5-0.3-0.9v-5.7c0-0.4,0.1-0.7,0.3-0.9c0.2-0.2,0.4-0.3,0.7-0.3c0.3,0,0.5,0.1,0.7,0.3
			C271.8,112.7,271.9,112.9,271.9,113.3z"/>
		<path class="st0" d="M278.5,113.3v0.2c0.4-0.5,0.7-0.8,1.2-1c0.4-0.2,0.9-0.3,1.4-0.3c0.5,0,1,0.1,1.4,0.3c0.4,0.2,0.7,0.6,0.9,1
			c0.1,0.2,0.2,0.5,0.3,0.8c0,0.3,0.1,0.6,0.1,1.1v3.7c0,0.4-0.1,0.7-0.3,0.9c-0.2,0.2-0.4,0.3-0.7,0.3c-0.3,0-0.5-0.1-0.7-0.3
			c-0.2-0.2-0.3-0.5-0.3-0.9v-3.3c0-0.7-0.1-1.2-0.3-1.5c-0.2-0.3-0.5-0.5-1.1-0.5c-0.4,0-0.7,0.1-1,0.3c-0.3,0.2-0.5,0.5-0.6,0.9
			c-0.1,0.3-0.1,0.9-0.1,1.7v2.5c0,0.4-0.1,0.7-0.3,0.9c-0.2,0.2-0.4,0.3-0.7,0.3c-0.3,0-0.5-0.1-0.7-0.3c-0.2-0.2-0.3-0.5-0.3-0.9
			v-5.8c0-0.4,0.1-0.7,0.2-0.9c0.2-0.2,0.4-0.3,0.7-0.3c0.2,0,0.3,0,0.5,0.1c0.1,0.1,0.3,0.2,0.3,0.4
			C278.5,112.8,278.5,113,278.5,113.3z"/>
		<path class="st0" d="M293.5,119.2c-0.5,0.4-1,0.7-1.4,0.8c-0.5,0.2-1,0.3-1.5,0.3c-0.5,0-1-0.1-1.4-0.3c-0.4-0.2-0.7-0.5-0.9-0.8
			c-0.2-0.3-0.3-0.7-0.3-1.1c0-0.5,0.2-1,0.5-1.4c0.3-0.4,0.8-0.6,1.4-0.8c0.1,0,0.4-0.1,0.9-0.2c0.5-0.1,0.9-0.2,1.3-0.3
			c0.4-0.1,0.7-0.2,1.2-0.3c0-0.5-0.1-0.9-0.3-1.2c-0.2-0.2-0.6-0.4-1.2-0.4c-0.5,0-0.9,0.1-1.1,0.2c-0.3,0.1-0.5,0.4-0.7,0.6
			c-0.2,0.3-0.3,0.5-0.4,0.6c-0.1,0.1-0.2,0.1-0.5,0.1c-0.2,0-0.4-0.1-0.6-0.2c-0.2-0.1-0.2-0.3-0.2-0.6c0-0.4,0.1-0.7,0.4-1
			c0.2-0.3,0.6-0.6,1.2-0.8c0.5-0.2,1.2-0.3,2-0.3c0.9,0,1.6,0.1,2.1,0.3c0.5,0.2,0.9,0.5,1.1,1c0.2,0.4,0.3,1,0.3,1.8
			c0,0.5,0,0.9,0,1.2c0,0.3,0,0.7,0,1.1c0,0.4,0.1,0.8,0.2,1.2c0.1,0.4,0.2,0.7,0.2,0.8c0,0.2-0.1,0.4-0.3,0.6
			c-0.2,0.2-0.4,0.3-0.7,0.3c-0.2,0-0.4-0.1-0.6-0.3C293.9,119.8,293.7,119.5,293.5,119.2z M293.4,116.3c-0.3,0.1-0.7,0.2-1.3,0.3
			c-0.6,0.1-0.9,0.2-1.2,0.3c-0.2,0.1-0.4,0.2-0.6,0.3c-0.2,0.2-0.3,0.4-0.3,0.7c0,0.3,0.1,0.6,0.3,0.8c0.2,0.2,0.5,0.3,0.9,0.3
			c0.4,0,0.8-0.1,1.1-0.3c0.3-0.2,0.6-0.4,0.7-0.7c0.2-0.3,0.3-0.8,0.3-1.5V116.3z"/>
		<path class="st0" d="M299.8,112.3h0.2v-1.2c0-0.3,0-0.6,0-0.8c0-0.2,0.1-0.3,0.1-0.5c0.1-0.1,0.2-0.2,0.3-0.3
			c0.1-0.1,0.3-0.1,0.5-0.1c0.3,0,0.5,0.1,0.7,0.3c0.1,0.1,0.2,0.3,0.3,0.5c0,0.2,0.1,0.4,0.1,0.8v1.4h0.7c0.3,0,0.5,0.1,0.6,0.2
			c0.1,0.1,0.2,0.3,0.2,0.5c0,0.3-0.1,0.5-0.3,0.6c-0.2,0.1-0.5,0.2-0.9,0.2H302v3.7c0,0.3,0,0.6,0,0.7c0,0.2,0.1,0.3,0.2,0.4
			c0.1,0.1,0.3,0.2,0.5,0.2c0.1,0,0.3,0,0.5-0.1c0.2,0,0.4-0.1,0.5-0.1c0.2,0,0.3,0.1,0.4,0.2c0.1,0.1,0.2,0.3,0.2,0.5
			c0,0.3-0.2,0.6-0.5,0.7c-0.4,0.2-0.9,0.3-1.5,0.3c-0.6,0-1.1-0.1-1.4-0.3c-0.3-0.2-0.5-0.5-0.6-0.9c-0.1-0.4-0.2-0.9-0.2-1.5v-3.8
			h-0.3c-0.3,0-0.5-0.1-0.7-0.2c-0.2-0.1-0.2-0.3-0.2-0.5c0-0.2,0.1-0.4,0.2-0.5C299.3,112.4,299.5,112.3,299.8,112.3z"/>
		<path class="st0" d="M315.2,116.2c0,0.6-0.1,1.1-0.3,1.6c-0.2,0.5-0.5,0.9-0.8,1.3c-0.4,0.4-0.8,0.6-1.3,0.8
			c-0.5,0.2-1,0.3-1.6,0.3c-0.6,0-1.1-0.1-1.6-0.3c-0.5-0.2-0.9-0.5-1.3-0.8c-0.4-0.4-0.6-0.8-0.8-1.3c-0.2-0.5-0.3-1-0.3-1.6
			c0-0.6,0.1-1.2,0.3-1.7c0.2-0.5,0.5-0.9,0.8-1.3c0.3-0.4,0.8-0.6,1.3-0.8c0.5-0.2,1-0.3,1.6-0.3c0.6,0,1.2,0.1,1.6,0.3
			c0.5,0.2,0.9,0.5,1.3,0.8c0.4,0.4,0.6,0.8,0.8,1.3C315.1,115.1,315.2,115.6,315.2,116.2z M313.2,116.2c0-0.8-0.2-1.5-0.5-1.9
			c-0.4-0.5-0.8-0.7-1.4-0.7c-0.4,0-0.7,0.1-1,0.3c-0.3,0.2-0.5,0.5-0.7,0.9c-0.2,0.4-0.2,0.9-0.2,1.4c0,0.5,0.1,1,0.2,1.4
			c0.2,0.4,0.4,0.7,0.7,0.9c0.3,0.2,0.6,0.3,1,0.3c0.6,0,1.1-0.2,1.4-0.7C313,117.7,313.2,117,313.2,116.2z"/>
	</g>
</g>
</svg>